<?xml version="1.0" standalone="no"?>
<!DOCTYPE svg PUBLIC "-//W3C//DTD SVG 20010904//EN"
 "http://www.w3.org/TR/2001/REC-SVG-20010904/DTD/svg10.dtd">
<svg version="1.0" xmlns="http://www.w3.org/2000/svg"
 width="1024.000000pt" height="1024.000000pt" viewBox="0 0 1024.000000 1024.000000"
 preserveAspectRatio="xMidYMid meet">
<metadata>
Created by potrace 1.14, written by Peter Selinger 2001-2017
</metadata>
<g transform="translate(0.000000,1024.000000) scale(0.100000,-0.100000)"
fill="#000000" stroke="none">
<path d="M2215 9954 c-159 -19 -226 -30 -327 -56 -434 -108 -833 -363 -1120
-714 -193 -237 -352 -560 -423 -859 -52 -220 -50 -62 -50 -3225 0 -2799 1
-2960 18 -3050 59 -315 160 -570 321 -815 367 -558 951 -902 1586 -934 74 -3
1418 -6 2985 -5 2135 1 2871 5 2935 14 191 26 398 85 570 160 552 243 1013
788 1164 1376 65 250 59 -35 63 3194 3 2069 1 2969 -7 3050 -22 228 -89 458
-200 685 -206 422 -546 763 -969 975 -156 78 -340 139 -553 183 l-103 21
-2930 2 c-1612 0 -2943 0 -2960 -2z"/>
</g>
</svg>
